<svg width="17" height="15" viewBox="0 0 17 15" fill="none" xmlns="http://www.w3.org/2000/svg">
<path d="M0 7.72566C0 7.34596 0.282154 7.03217 0.648229 6.98251L0.75 6.97566L13.934 6.97626L9.17101 2.23273C8.87749 1.94047 8.87647 1.4656 9.16873 1.17207C9.43442 0.905233 9.85103 0.88013 10.1451 1.09735L10.2294 1.16979L16.2794 7.19379C16.3181 7.23231 16.3517 7.27401 16.3802 7.31804C16.3883 7.33129 16.3965 7.34485 16.4042 7.35868C16.4114 7.37054 16.4178 7.38285 16.4239 7.39529C16.4324 7.4134 16.4407 7.43211 16.4482 7.4512C16.4543 7.46592 16.4594 7.48024 16.464 7.49467C16.4696 7.51256 16.4749 7.53163 16.4796 7.55099C16.483 7.56451 16.4857 7.57751 16.4881 7.59057C16.4914 7.61 16.4943 7.63011 16.4963 7.65046C16.498 7.66598 16.4991 7.68135 16.4997 7.69674C16.4998 7.70608 16.5 7.71585 16.5 7.72566L16.4996 7.75471C16.4991 7.76943 16.498 7.78414 16.4966 7.79881L16.5 7.72566C16.5 7.77299 16.4956 7.81929 16.4872 7.86419C16.4853 7.87491 16.483 7.88592 16.4804 7.89688C16.4751 7.91946 16.4689 7.9412 16.4618 7.96252C16.4584 7.97311 16.4543 7.98442 16.45 7.99565C16.4412 8.01822 16.4317 8.03973 16.4212 8.06069C16.4163 8.07054 16.4109 8.08086 16.4052 8.09107C16.3958 8.10773 16.3861 8.12356 16.3759 8.13899C16.3687 8.14991 16.3607 8.16127 16.3524 8.17246L16.3459 8.18111C16.3257 8.2075 16.3038 8.23252 16.2803 8.25599L16.2794 8.25669L10.2294 14.2817C9.93593 14.574 9.46106 14.573 9.16877 14.2795C8.90306 14.0127 8.87971 13.596 9.09818 13.3028L9.17097 13.2188L13.932 8.47626L0.75 8.47566C0.335786 8.47566 0 8.13987 0 7.72566Z" fill="#14181D"/>
</svg>
